<?xml version="1.0" standalone="no"?><!DOCTYPE svg PUBLIC "-//W3C//DTD SVG 1.1//EN" "http://www.w3.org/Graphics/SVG/1.1/DTD/svg11.dtd"><svg t="1570786039274" class="icon" viewBox="0 0 1024 1024" version="1.1" xmlns="http://www.w3.org/2000/svg" p-id="1339" xmlns:xlink="http://www.w3.org/1999/xlink" width="128" height="128"><defs><style type="text/css"></style></defs><path d="M93.090909 0h837.818182a93.090909 93.090909 0 0 1 93.090909 93.090909v837.818182a93.090909 93.090909 0 0 1-93.090909 93.090909H93.090909a93.090909 93.090909 0 0 1-93.090909-93.090909V93.090909A93.090909 93.090909 0 0 1 93.090909 0z m557.921746 299.752727a85.643636 85.643636 0 1 0 85.643636-85.643636 85.820509 85.820509 0 0 0-85.643636 85.643636zM586.472727 474.763636l-40.96 54.616437L463.592727 381.672727c-23.579927-42.198109-62.063709-42.198109-85.643636 0L139.636364 809.890909h744.727272L631.156364 474.763636a27.648 27.648 0 0 0-37.236364-8.685381A53.685527 53.685527 0 0 0 586.472727 474.763636" fill="#DDDDDD" p-id="1340"></path></svg>